<svg xmlns="http://www.w3.org/2000/svg" viewBox="0 0 64.05 46.28">
  <defs>
    <style>
      .a {
        fill: #2ebbed;
      }
    </style>
  </defs>
  <title>logo</title>
  <g>
    <path class="a" d="M43.49,35.82l.16,1H48.1l-.64-3.66C46.18,34,44.85,34.94,43.49,35.82Z"/>
    <path class="a" d="M63.08,5.94c-1.19-2.06-3.43-3.44-6.5-4.06a2.5,2.5,0,1,0-.16,1.69,7.55,7.55,0,0,1,5.19,3.22c1.72,3,.37,7.74-3.7,13A56.85,56.85,0,0,1,47,30.32L42.87,7A.28.28,0,0,0,42.33,7L32.7,28.28,23.15,6.94a.28.28,0,0,0-.54.06L16.79,36.79h4.45l3-17.23,8,18a.28.28,0,0,0,.52,0l8-17.94L43,33.08q-2,1.34-4.19,2.59c-16,9.26-32.7,11.68-36.4,5.29-2.94-5.09,3-14.68,14.37-23.31a.85.85,0,0,0-1-1.36C3.48,25.6-2.47,35.86,1,41.81c1.74,3,5.56,4.47,10.65,4.47,7.48,0,17.71-3.15,28.07-9.13,8.19-4.73,15.15-10.51,19.57-16.27C63.84,14.91,65.2,9.61,63.08,5.94Z"/>
  </g>
</svg>
